<svg version="1" xmlns="http://www.w3.org/2000/svg" width="3556" height="3556" viewBox="0 0 2667.000000 2667.000000"><path d="M0 1.5C0 2.8 148.8 3 1333.5 3S2667 2.8 2667 1.5 2518.2 0 1333.5 0 0 .2 0 1.5zM0 1544c0 617.7.4 1123 .8 1123 .5 0 1.2-15.9 1.6-35.3 6.7-347.5 90.8-704.8 262.4-1115.7 101.8-243.9 229-487.2 392.7-751.5 66.8-107.8 149.9-234.9 208.1-318.1 8.9-12.8 16.5-23.7 16.8-24.3.5-.8-117.7-1.1-440.8-1.1H0v1123zM1785.6 422.2c.5.7 9.8 14.1 20.7 29.8 10.9 15.7 34.2 49.9 51.6 76 229.3 342.9 398.7 646.6 526.6 944 165.8 385.6 256.1 729.8 276.9 1055.5 1.7 25.9 3.4 67 4.5 110 .4 16 .9-476.2.9-1093.8L2667 421h-441.1c-352.5 0-440.9.3-440.3 1.2zM1120.9 813.7c-2 3.2-11.4 17.6-20.8 32.1-109.5 167.9-204.8 329.1-288.5 487.7-17.9 33.9-70.6 139.6-86.5 173.5-69.1 147.2-128.5 294.5-174.6 432.5-74.2 222.2-116.2 426.2-128 620-1.5 25.6-3.5 80.3-3.5 97.7v9.8h706v-929.5c0-511.2-.1-929.5-.3-929.5-.1 0-1.8 2.6-3.8 5.7zM1543 1737.8V2667h706.2l-.6-26.7c-1.8-71.9-5.6-128.3-13.2-192.3-28.8-245.5-106-513-233.4-809.5-96.5-224.4-217-449.5-374.6-699.7-30.8-48.9-81.1-126.8-83.5-129.3-.5-.5-.9 372-.9 928.3z"/></svg>