<svg xmlns="http://www.w3.org/2000/svg" viewBox="0 0 641 640.66"><defs><style>.a{fill:none;stroke:#000;stroke-miterlimit:10;}</style></defs><line class="a" x1="0.5" y1="0.66" x2="640.5" y2="0.66"/><line class="a" x1="320.5" y1="0.66" x2="320.5" y2="640.66"/><path class="a" d="M640,640c0-101-33.13-200.66-76.29-292.1-16.59-35.16-35.17-69.36-55.16-102.7-27-45.12-56.66-88.65-87.59-131.17C391.34,73.32,358.53,32.75,320,0c-38.53,32.75-71.34,73.32-101,114-30.93,42.52-60.55,86.05-87.59,131.17-20,33.34-38.57,67.54-55.16,102.7C33.13,439.34,0,539,0,640" transform="translate(0.5 0.66)"/></svg>