<svg xmlns="http://www.w3.org/2000/svg" viewBox="0 0 640.2 395.39"><defs><style>.a{fill:none;stroke:#000;stroke-miterlimit:10;}</style></defs><path class="a" d="M588.1,241Q562,298.21,534.05,354.69C506.51,410.31,474.76,468.35,418.8,500c-29.91,16.89-63.71,17.4-99.12,17.4h.64c-35.41,0-69.21-.51-99.12-17.4-56-31.6-87.71-89.64-115.25-145.26Q78,298.22,51.9,241" transform="translate(0.1 -122.46)"/><path class="a" d="M639.64,122.65Q614.88,182.19,588.1,241c-79.85-40.81-177.2-57.59-268.1-57.59-91.21,0-188.25,16.78-268.1,57.59Q25.12,182.18.36,122.65" transform="translate(0.1 -122.46)"/></svg>