<svg xmlns="http://www.w3.org/2000/svg" viewBox="0 0 465.83 641"><defs><style>.a{fill:none;stroke:#000;stroke-linecap:round;stroke-miterlimit:10;}</style></defs><path class="a" d="M400.57,0c9.09,54.15,8.85,115.11-20.65,163.35-26.34,43.07-71.38,72.85-119.29,86.84C204.86,266.46,145,263.34,88,252.28" transform="translate(-87.51 0.5)"/><path class="a" d="M388.47,146.34c-32.91,89.43-71.39,199.2-35.88,293,12.48,33,41.51,66.37,52.37,101.76,3.75,12.26,4.23,16,4.66,24.13,2.1,40.46-41.15,57.14-74.5,65.06-76.6,18.19-170.55,3.81-247-12.2" transform="translate(-87.51 0.5)"/><path class="a" d="M552.84,631.11c-15.44,8.63-34,10.65-51.41,7.47s-33.59-11.33-47.88-21.78A131.28,131.28,0,0,1,423,586c-8.92-12.86-9.24-13.42-14.05-28.86" transform="translate(-87.51 0.5)"/><path class="a" d="M543.28,135q-76.63,8.18-154.52,11.22Q313,117.42,238.61,83.8" transform="translate(-87.51 0.5)"/></svg>